<?xml version="1.0" encoding="UTF-8" standalone="no"?>
<!-- Created with Inkscape (http://www.inkscape.org/) -->

<svg
   width="103.07299mm"
   height="122.41201mm"
   viewBox="0 0 103.07299 122.41201"
   version="1.1"
   id="svg5"
   xmlns="http://www.w3.org/2000/svg"
   xmlns:svg="http://www.w3.org/2000/svg">
  <defs
     id="defs2" />
  <g
     id="layer1">
    <path
       style="color:#000000;fill:none;stroke:#1faa0d;stroke-width:3.57542;stroke-linecap:round;stroke-linejoin:round;stroke-dasharray:none;stroke-opacity:1"
       d="M 93.451376,2.3429644 A 6.3467691,8.2275702 0 0 0 89.631617,6.2342788 C 76.195014,37.245092 62.759588,68.25705 49.322986,99.267861 L 12.507512,54.971929 A 6.3467691,8.2275702 0 0 0 3.5378309,55.404935 6.3467691,8.2275702 0 0 0 3.8718557,67.032699 L 46.59289,118.43384 a 6.3474038,8.2283931 0 0 0 9.850021,-2.00147 C 71.194793,82.385984 85.947093,48.340418 100.69898,14.294035 A 6.3467691,8.2275702 0 0 0 98.27321,3.0915895 6.3467691,8.2275702 0 0 0 93.451376,2.3429644 Z"
       id="path236" />
  </g>
</svg>
